# xmcd
#
# Track frame offsets:
#  150
#  15405
#  31830
#  44280
#  61155
#  76755
#  91080
#  106305
#  121680
#  135855
#  145905
#  161205
#  171405
#  185055
#
# Disc length: 2620 seconds
#
# Revision: 0
# Processed by: cddbd v1.5.1PL0 Copyright (c) Steve Scherf et al.
# Submitted via: AltoMP3_Maker 3.0
#
DISCID=a70a3a0e
DTITLE=Toon van de Migra's - Ken u ze nog?
DYEAR=1900
DGENRE=
TTITLE0=Griekse nacht
TTITLE1=Tonio Samba
TTITLE2=Schlager parade
TTITLE3=Die Argentijnse tango
TTITLE4=Ode aan de zee
TTITLE5=En steeds weer huil jij
TTITLE6=Hemelsblauw
TTITLE7=Wie gaat er mee?
TTITLE8=Waar ik ga
TTITLE9=Tiroler party polka
TTITLE10=Aloha he
TTITLE11=Jij bent de zon
TTITLE12=De laatste tango
TTITLE13=Nordsee Kueste
EXTD=
EXTT0=
EXTT1=
EXTT2=
EXTT3=
EXTT4=
EXTT5=
EXTT6=
EXTT7=
EXTT8=
EXTT9=
EXTT10=
EXTT11=
EXTT12=
EXTT13=
PLAYORDER=
